<svg width="20" height="20" viewBox="0 0 20 20" fill="none" xmlns="http://www.w3.org/2000/svg">
<path d="M6.88916 12.2333C6.73583 12.2333 6.6325 12.2483 6.57916 12.2633V13.2449C6.6425 13.2599 6.72166 13.2641 6.83083 13.2641C7.23 13.2641 7.47583 13.0624 7.47583 12.7216C7.47583 12.4166 7.26416 12.2333 6.88916 12.2333ZM9.795 12.2433C9.62833 12.2433 9.52 12.2583 9.45583 12.2733V14.4483C9.52 14.4633 9.62333 14.4633 9.71666 14.4633C10.3975 14.4683 10.8408 14.0933 10.8408 13.2999C10.8458 12.6083 10.4417 12.2433 9.795 12.2433Z" fill="#F24E1E"/>
<path d="M11.6667 1.66663H4.99999C4.55797 1.66663 4.13404 1.84222 3.82148 2.15478C3.50892 2.46734 3.33333 2.89127 3.33333 3.33329V16.6666C3.33333 17.1087 3.50892 17.5326 3.82148 17.8451C4.13404 18.1577 4.55797 18.3333 4.99999 18.3333H15C15.442 18.3333 15.8659 18.1577 16.1785 17.8451C16.4911 17.5326 16.6667 17.1087 16.6667 16.6666V6.66663L11.6667 1.66663ZM7.91499 13.4916C7.65749 13.7333 7.27749 13.8416 6.83499 13.8416C6.7492 13.8426 6.66343 13.8375 6.57833 13.8266V15.015H5.83333V11.735C6.16954 11.6848 6.50926 11.662 6.84916 11.6666C7.31333 11.6666 7.64333 11.755 7.86583 11.9325C8.07749 12.1008 8.22083 12.3766 8.22083 12.7016C8.21999 13.0283 8.11166 13.3041 7.91499 13.4916ZM11.0875 14.6208C10.7375 14.9116 10.205 15.05 9.55416 15.05C9.16416 15.05 8.88833 15.025 8.70083 15V11.7358C9.03716 11.6867 9.37678 11.6636 9.71666 11.6666C10.3475 11.6666 10.7575 11.78 11.0775 12.0216C11.4233 12.2783 11.64 12.6875 11.64 13.275C11.64 13.9108 11.4075 14.35 11.0875 14.6208ZM14.1667 12.3083H12.89V13.0675H14.0833V13.6791H12.89V15.0158H12.135V11.6916H14.1667V12.3083ZM11.6667 7.49996H10.8333V3.33329L15 7.49996H11.6667Z" fill="#F24E1E"/>
</svg>
