<svg width="15" height="15" viewBox="0 0 15 15" fill="none" xmlns="http://www.w3.org/2000/svg">
<path d="M12.2848 7.16842C12.3284 7.21195 12.363 7.26365 12.3865 7.32056C12.4101 7.37746 12.4223 7.43846 12.4223 7.50006C12.4223 7.56166 12.4101 7.62266 12.3865 7.67956C12.363 7.73647 12.3284 7.78817 12.2848 7.8317L7.47718 12.6364C6.86172 13.2518 6.027 13.5975 5.15666 13.5974C4.28632 13.5974 3.45165 13.2516 2.83626 12.6361C2.22088 12.0206 1.87519 11.1859 1.87524 10.3156C1.8753 9.44524 2.22109 8.61056 2.83656 7.99518L8.65257 2.09361C9.09197 1.65375 9.6881 1.40646 10.3098 1.40613C10.9316 1.4058 11.5279 1.65246 11.9678 2.09186C12.4077 2.53125 12.655 3.12738 12.6553 3.74911C12.6556 4.37084 12.409 4.96723 11.9696 5.40709L6.15238 11.3087C5.8882 11.5728 5.52989 11.7212 5.15628 11.7212C4.78268 11.7212 4.42437 11.5728 4.16019 11.3087C3.89601 11.0445 3.74759 10.6862 3.74759 10.3126C3.74759 9.93895 3.89601 9.58065 4.16019 9.31647L9.04105 4.35826C9.0838 4.31265 9.13525 4.27606 9.19236 4.25063C9.24948 4.2252 9.3111 4.21145 9.3736 4.21019C9.4361 4.20893 9.49823 4.22019 9.55632 4.2433C9.61441 4.26641 9.66729 4.30091 9.71184 4.34476C9.7564 4.38861 9.79173 4.44094 9.81577 4.49865C9.8398 4.55636 9.85204 4.6183 9.85178 4.68082C9.85152 4.74333 9.83875 4.80517 9.81423 4.86268C9.78972 4.92018 9.75394 4.97221 9.70902 5.01568L4.82757 9.97916C4.78387 10.0225 4.74913 10.0741 4.72534 10.1308C4.70156 10.1876 4.68919 10.2485 4.68894 10.3101C4.6887 10.3717 4.70058 10.4327 4.72392 10.4897C4.74725 10.5466 4.78158 10.5984 4.82494 10.6422C4.86829 10.6859 4.91984 10.7206 4.97662 10.7444C5.03341 10.7682 5.09432 10.7805 5.15588 10.7808C5.21745 10.781 5.27846 10.7691 5.33543 10.7458C5.3924 10.7225 5.44422 10.6881 5.48792 10.6448L11.3045 4.74615C11.5687 4.48252 11.7173 4.12473 11.7177 3.75151C11.7181 3.37829 11.5702 3.0202 11.3066 2.75602C11.0429 2.49184 10.6852 2.34321 10.3119 2.34282C9.93871 2.34244 9.58062 2.49033 9.31644 2.75397L3.5016 8.65318C3.28376 8.87067 3.1109 9.12894 2.99287 9.41324C2.87485 9.69753 2.81397 10.0023 2.81373 10.3101C2.81349 10.6179 2.87387 10.9228 2.99144 11.2073C3.10902 11.4918 3.28147 11.7503 3.49896 11.9681C3.71645 12.186 3.97471 12.3588 4.25901 12.4769C4.5433 12.5949 4.84806 12.6557 5.15588 12.656C5.4637 12.6562 5.76856 12.5958 6.05304 12.4783C6.33752 12.3607 6.59606 12.1883 6.8139 11.9708L11.6221 7.16608C11.7103 7.07854 11.8297 7.02962 11.9539 7.03006C12.0782 7.0305 12.1972 7.08027 12.2848 7.16842Z" fill="black"/>
</svg>
