<svg width="22" height="22" viewBox="0 0 22 22" fill="none" xmlns="http://www.w3.org/2000/svg">
<rect width="22" height="22" rx="11" fill="white"/>
<path d="M4.77898 15V7.72727H7.69091C8.22595 7.72727 8.67221 7.80658 9.02969 7.9652C9.38717 8.12382 9.65587 8.34399 9.8358 8.62571C10.0157 8.90507 10.1057 9.22704 10.1057 9.59162C10.1057 9.87571 10.0489 10.1255 9.93523 10.3409C9.82159 10.554 9.66534 10.7292 9.46648 10.8665C9.26998 11.0014 9.04508 11.0973 8.79176 11.1541V11.2251C9.06875 11.237 9.32798 11.3151 9.56946 11.4595C9.81331 11.6039 10.011 11.8063 10.1625 12.0668C10.314 12.3248 10.3898 12.6326 10.3898 12.9901C10.3898 13.3759 10.2939 13.7204 10.1021 14.0234C9.91274 14.3241 9.6322 14.562 9.26051 14.7372C8.88883 14.9124 8.43073 15 7.88622 15H4.77898ZM6.31662 13.7429H7.57017C7.99867 13.7429 8.31117 13.6612 8.50767 13.4979C8.70417 13.3321 8.80241 13.112 8.80241 12.8374C8.80241 12.6361 8.75388 12.4586 8.65682 12.3047C8.55975 12.1508 8.42126 12.0301 8.24134 11.9425C8.06378 11.8549 7.85189 11.8111 7.60568 11.8111H6.31662V13.7429ZM6.31662 10.7706H7.45653C7.66723 10.7706 7.85426 10.7339 8.01761 10.6605C8.18333 10.5848 8.31354 10.4782 8.40824 10.3409C8.5053 10.2036 8.55384 10.0391 8.55384 9.8473C8.55384 9.58452 8.46032 9.37263 8.2733 9.21165C8.08864 9.05066 7.82585 8.97017 7.48494 8.97017H6.31662V10.7706ZM15.6825 7.72727H17.2201V12.4503C17.2201 12.9806 17.0935 13.4446 16.8402 13.8423C16.5892 14.2401 16.2377 14.5502 15.7855 14.7727C15.3333 14.9929 14.8065 15.103 14.2052 15.103C13.6015 15.103 13.0736 14.9929 12.6214 14.7727C12.1692 14.5502 11.8177 14.2401 11.5667 13.8423C11.3158 13.4446 11.1903 12.9806 11.1903 12.4503V7.72727H12.7279V12.3189C12.7279 12.5959 12.7883 12.8421 12.9091 13.0575C13.0322 13.273 13.205 13.4422 13.4275 13.5653C13.6501 13.6884 13.9093 13.75 14.2052 13.75C14.5035 13.75 14.7627 13.6884 14.9829 13.5653C15.2055 13.4422 15.3771 13.273 15.4978 13.0575C15.6209 12.8421 15.6825 12.5959 15.6825 12.3189V7.72727Z" fill="#292A2D"/>
</svg>
