<svg width="20" height="20" viewBox="0 0 20 20" fill="none" xmlns="http://www.w3.org/2000/svg">
<g clip-path="url(#clip0_297_3443)">
<path fill-rule="evenodd" clip-rule="evenodd" d="M1.33325 2C1.33325 1.46957 1.54397 0.960859 1.91904 0.585786C2.29411 0.210714 2.80282 0 3.33325 0L14.2759 0L18.6666 4.39067V18C18.6666 18.5304 18.4559 19.0391 18.0808 19.4142C17.7057 19.7893 17.197 20 16.6666 20H3.33325C2.80282 20 2.29411 19.7893 1.91904 19.4142C1.54397 19.0391 1.33325 18.5304 1.33325 18V2ZM3.99992 9.724V8H2.66659V10.276L3.72392 11.3333L2.66659 12.3907V14.6667H3.99992V12.9427L4.66659 12.276L5.33325 12.9427V14.6667H6.66659V12.3907L5.60925 11.3333L6.66659 10.276V8H5.33325V9.724L4.66659 10.3907L3.99992 9.724ZM7.99992 8H9.33325V13.3333H11.9999V14.6667H7.99992V8ZM17.3333 8H13.3333V12H15.9999V13.3333H13.3333V14.6667H17.3333V10.6667H14.6666V9.33333H17.3333V8Z" fill="#228F41"/>
</g>
<defs>
<clipPath id="clip0_297_3443">
<rect width="20" height="20" fill="white"/>
</clipPath>
</defs>
</svg>
