<svg width="28" height="28" viewBox="0 0 28 28" fill="none" xmlns="http://www.w3.org/2000/svg">
<path d="M20.1542 21.1458L19.6583 20.65C19.4833 20.475 19.2745 20.3875 19.0318 20.3875C18.7892 20.3875 18.5799 20.475 18.4042 20.65C18.2292 20.825 18.1417 21.0292 18.1417 21.2625C18.1417 21.4958 18.2292 21.7 18.4042 21.875L19.5417 23.0125C19.7167 23.1875 19.9208 23.275 20.1542 23.275C20.3875 23.275 20.5917 23.1875 20.7667 23.0125L23.5958 20.2417C23.7708 20.0667 23.8583 19.8574 23.8583 19.614C23.8583 19.3706 23.7708 19.1617 23.5958 18.9875C23.4208 18.8125 23.2116 18.725 22.9682 18.725C22.7247 18.725 22.5159 18.8125 22.3417 18.9875L20.1542 21.1458ZM8.16667 10.5H19.8333C20.1639 10.5 20.4412 10.388 20.6652 10.164C20.8892 9.94 21.0008 9.66311 21 9.33333C21 9.00278 20.888 8.72589 20.664 8.50267C20.44 8.27944 20.1631 8.16744 19.8333 8.16667H8.16667C7.83611 8.16667 7.55922 8.27867 7.336 8.50267C7.11278 8.72667 7.00078 9.00356 7 9.33333C7 9.66389 7.112 9.94117 7.336 10.1652C7.56 10.3892 7.83689 10.5008 8.16667 10.5ZM21 26.8333C19.3861 26.8333 18.0106 26.2644 16.8735 25.1265C15.7364 23.9886 15.1674 22.6131 15.1667 21C15.1667 19.3861 15.7356 18.0106 16.8735 16.8735C18.0114 15.7364 19.3869 15.1674 21 15.1667C22.6139 15.1667 23.9898 15.7356 25.1277 16.8735C26.2656 18.0114 26.8341 19.3869 26.8333 21C26.8333 22.6139 26.2644 23.9898 25.1265 25.1277C23.9886 26.2656 22.6131 26.8341 21 26.8333ZM3.5 25.5208V5.83333C3.5 5.19167 3.72867 4.64256 4.186 4.186C4.64333 3.72944 5.19244 3.50078 5.83333 3.5H22.1667C22.8083 3.5 23.3578 3.72867 23.8152 4.186C24.2725 4.64333 24.5008 5.19244 24.5 5.83333V13.6208C24.1306 13.4458 23.7514 13.3 23.3625 13.1833C22.9736 13.0667 22.575 12.9792 22.1667 12.9208V5.83333H5.83333V22.225H12.9208C13.0181 22.8278 13.1689 23.4014 13.3735 23.9458C13.5781 24.4903 13.8452 25.0056 14.175 25.4917C14.0778 25.5111 13.9755 25.4963 13.8682 25.4473C13.7608 25.3983 13.6687 25.3353 13.5917 25.2583L12.6583 24.325C12.5417 24.2083 12.4056 24.15 12.25 24.15C12.0944 24.15 11.9583 24.2083 11.8417 24.325L10.9083 25.2583C10.7917 25.375 10.6556 25.4333 10.5 25.4333C10.3444 25.4333 10.2083 25.375 10.0917 25.2583L9.15833 24.325C9.04167 24.2083 8.90556 24.15 8.75 24.15C8.59444 24.15 8.45833 24.2083 8.34167 24.325L7.40833 25.2583C7.29167 25.375 7.15556 25.4333 7 25.4333C6.84444 25.4333 6.70833 25.375 6.59167 25.2583L5.65833 24.325C5.54167 24.2083 5.40556 24.15 5.25 24.15C5.09444 24.15 4.95833 24.2083 4.84167 24.325L3.90833 25.2583L3.5 25.5208ZM8.16667 19.8333H12.9208C12.9792 19.425 13.0667 19.0264 13.1833 18.6375C13.3 18.2486 13.4458 17.8694 13.6208 17.5H8.16667C7.83611 17.5 7.55922 17.612 7.336 17.836C7.11278 18.06 7.00078 18.3369 7 18.6667C7 18.9972 7.112 19.2745 7.336 19.4985C7.56 19.7225 7.83689 19.8341 8.16667 19.8333ZM8.16667 15.1667H15.2833C16.0222 14.4472 16.8828 13.8783 17.8652 13.4598C18.8475 13.0414 19.8924 12.8326 21 12.8333H8.16667C7.83611 12.8333 7.55922 12.9453 7.336 13.1693C7.11278 13.3933 7.00078 13.6702 7 14C7 14.3306 7.112 14.6078 7.336 14.8318C7.56 15.0558 7.83689 15.1674 8.16667 15.1667Z" fill="black"/>
</svg>
