<svg width="20" height="20" viewBox="0 0 20 20" fill="none" xmlns="http://www.w3.org/2000/svg">
<path d="M5.8335 5.83337H5.00016C4.55814 5.83337 4.13421 6.00897 3.82165 6.32153C3.50909 6.63409 3.3335 7.05801 3.3335 7.50004V15C3.3335 15.4421 3.50909 15.866 3.82165 16.1786C4.13421 16.4911 4.55814 16.6667 5.00016 16.6667H12.5002C12.9422 16.6667 13.3661 16.4911 13.6787 16.1786C13.9912 15.866 14.1668 15.4421 14.1668 15V14.1667" stroke="#6A3EA1" stroke-width="1.66667" stroke-linecap="round" stroke-linejoin="round"/>
<path d="M13.3333 4.16669L15.8333 6.66669M16.9875 5.48753C17.3157 5.15932 17.5001 4.71418 17.5001 4.25003C17.5001 3.78588 17.3157 3.34073 16.9875 3.01253C16.6593 2.68432 16.2142 2.49994 15.75 2.49994C15.2858 2.49994 14.8407 2.68432 14.5125 3.01253L7.5 10V12.5H10L16.9875 5.48753Z" stroke="#6A3EA1" stroke-width="1.66667" stroke-linecap="round" stroke-linejoin="round"/>
</svg>
