<svg width="18" height="19" viewBox="0 0 18 19" fill="none" xmlns="http://www.w3.org/2000/svg">
<path d="M0.25875 1.93751C0.178065 2.00744 0.113243 2.0938 0.0686202 2.19081C0.0239975 2.28781 0.000602508 2.39323 0 2.50001V18.25C0 18.4489 0.0790178 18.6397 0.21967 18.7803C0.360322 18.921 0.551088 19 0.75 19C0.948912 19 1.13968 18.921 1.28033 18.7803C1.42098 18.6397 1.5 18.4489 1.5 18.25V14.1034C4.01156 12.1197 6.17531 13.1894 8.66719 14.4231C10.2047 15.1834 11.8603 16.0028 13.6359 16.0028C14.9419 16.0028 16.3116 15.5575 17.7441 14.3153C17.8247 14.2454 17.8896 14.159 17.9342 14.062C17.9788 13.965 18.0022 13.8596 18.0028 13.7528V2.50001C18.0025 2.35605 17.9607 2.21523 17.8825 2.09437C17.8043 1.9735 17.693 1.87769 17.5618 1.81838C17.4306 1.75908 17.2852 1.73877 17.1428 1.75989C17.0004 1.78102 16.8671 1.84267 16.7587 1.93751C14.1337 4.20907 11.91 3.10844 9.33281 1.83251C6.66281 0.508756 3.63562 -0.988432 0.25875 1.93751ZM16.5 13.3984C13.9884 15.3822 11.8247 14.3116 9.33281 13.0788C6.98906 11.9209 4.38187 10.6291 1.5 12.2913V2.85532C4.01156 0.871568 6.17531 1.94126 8.66719 3.17407C11.0109 4.33188 13.6191 5.62376 16.5 3.96157V13.3984Z" fill="black"/>
</svg>
